<?xml version="1.0" encoding="utf-8"?>
<!-- Generator: Adobe Illustrator 24.0.3, SVG Export Plug-In . SVG Version: 6.00 Build 0)  -->
<svg version="1.1" id="Layer_1" xmlns="http://www.w3.org/2000/svg" xmlns:xlink="http://www.w3.org/1999/xlink" x="0px" y="0px"
	 viewBox="0 0 100 138.08" style="enable-background:new 0 0 612 792;" xml:space="preserve">
<style type="text/css">
	.st0{fill:#F68B4E;}
	.st1{fill:#F26922;}
</style>
<g>
	<path class="st0" d="M18.4,31.2c-0.9,0-1.7,0.1-2.6,0.2C10.4,41.9,6.2,53.7,3.4,64.6c3.6,4.1,9,6.7,14.9,6.7c11,0,20-8.9,20-20
		C38.4,40.2,29.4,31.2,18.4,31.2z M62.2,3.9C58,7.6,55.3,13,55.3,19c0,11,8.9,20,20,20c4.1,0,7.8-1.2,11-3.3
		C79.9,22,71.6,9.9,62.2,3.9z M98.5,73.6C92,68.9,84,66.2,75.3,66.2c-22.1,0-40,17.9-40,40c0,13,6.2,24.6,15.9,31.9
		c27.1-0.6,48.8-22.8,48.8-50C100,83.9,99.5,78.9,98.5,73.6z"/>
	<path class="st0" d="M35.3,106.2c0,13,6.2,24.6,15.9,31.9c-0.4,0-0.8,0-1.2,0c-27.6,0-50-22.4-50-50c0-6.5,1.2-14.7,3.4-23.5
		c3.6,4.1,9,6.7,14.9,6.7c11,0,20-8.9,20-20c0-11-9-20-20-20c-0.9,0-1.7,0.1-2.6,0.2C24.7,13.9,36.8,0,50,0c4.2,0,8.3,1.4,12.2,3.9
		C58,7.6,55.3,13,55.3,19c0,11,8.9,20,20,20c4.1,0,7.8-1.2,11-3.3c1.7,3.6,3.3,7.4,4.7,11.2c0.2,0.4,0.3,0.9,0.5,1.3
		c3.2,8.7,5.6,17.4,7,25.3C92,68.9,84,66.2,75.3,66.2C53.2,66.2,35.3,84.1,35.3,106.2z"/>
	<path class="st1" d="M100,88.1c0,27.2-21.7,49.4-48.8,50c-9.6-7.3-15.9-18.9-15.9-31.9c0-22.1,17.9-40,40-40
		c8.6,0,16.6,2.7,23.2,7.4C99.5,78.9,100,83.9,100,88.1z"/>
	<path class="st1" d="M38.4,51.2c0,11.1-9,20-20,20c-5.9,0-11.3-2.6-14.9-6.7c2.7-10.9,7-22.7,12.3-33.1c0.9-0.1,1.7-0.2,2.6-0.2
		C29.4,31.2,38.4,40.2,38.4,51.2z"/>
	<path class="st1" d="M86.3,35.7c-3.2,2.1-6.9,3.3-11,3.3c-11.1,0-20-9-20-20c0-6,2.7-11.5,6.9-15.1C71.6,9.9,79.9,22,86.3,35.7z"/>
</g>
</svg>
