<?xml version="1.0" encoding="utf-8"?>
<!-- Generator: Adobe Illustrator 24.0.3, SVG Export Plug-In . SVG Version: 6.00 Build 0)  -->
<svg version="1.1" id="Layer_1" xmlns="http://www.w3.org/2000/svg" xmlns:xlink="http://www.w3.org/1999/xlink" viewBox="0.5 119 105 105" height="105" width="105" xml:space="preserve">
<style type="text/css">
	.st0{fill:#FEDE8A;stroke:#FFD84A;stroke-width:5;stroke-miterlimit:10;}
	.st1{fill:#FCCFC0;stroke:#F8A580;stroke-width:3;stroke-miterlimit:10;}
	.st2{fill:#FCCFC0;}
	.st3{fill:#B7E2E4;stroke:#74CDDB;stroke-width:3;stroke-miterlimit:10;}
	.st4{fill:#97CD83;stroke:#75C269;stroke-width:2;stroke-miterlimit:10;}
	.st5{fill:#FBB675;stroke:#F89A42;stroke-width:2;stroke-miterlimit:10;}
	.st6{fill:#FDC26C;stroke:#FBAB37;stroke-width:5;stroke-miterlimit:10;}
	.st7{fill:#FFFFFF;stroke:#F04D24;stroke-width:5;stroke-miterlimit:10;}
	.st8{fill:#F04D24;stroke:#F04D24;stroke-width:5;stroke-miterlimit:10;}
	.st9{fill:#DD7E27;stroke:#B36C28;stroke-width:2;stroke-miterlimit:10;}
	.st10{fill:#F9F17A;stroke:#FDDA40;stroke-width:2;stroke-miterlimit:10;}
	.st11{fill:#F37158;stroke:#F04C33;stroke-width:5;stroke-miterlimit:10;}
	.st12{fill:#464547;stroke:#3D3D3E;stroke-width:3;stroke-miterlimit:10;}
	.st13{fill:#3D3D3E;stroke:#3D3D3E;stroke-width:3;stroke-miterlimit:10;}
</style>
<g>
	<circle class="st0" cx="53" cy="53" r="50"/>
	<path class="st1" d="M74.6,43.8H31.4c-5.1,0-9.1,4.6-8.3,9.7L27,79.3c0.6,4.1,4.2,7.1,8.3,7.1h36c4.2,0,7.8-3.1,8.3-7.3l3.3-25.8
		C83.6,48.3,79.7,43.8,74.6,43.8z"/>
	<path class="st2" d="M33.1,57.2"/>
	<path class="st3" d="M22.3,50.3c0.1,5.9,1.5,6.5,7.8,6.6c5.7,0.1,7-4.3,8.7-4.2c1.9,0.1,3.2,6.3,5.7,6.5c1.9,0.2,2.7-5.5,7.3-6.5
		c5.3-1.2,1.8,7.8,7.8,6.9c3.3-0.5,3.2-5.2,3.9-5.6c5.1-2.8,5.2,3.9,8.7,2.3c2.2-1,3.3-5.4,6.8-4.2c3.3,1,4.7-1.4,4.7-1.9
		c0.6-6.1-16.1-12.9-35.3-11C35.7,40.5,22.2,42.6,22.3,50.3z"/>
	<path class="st2" d="M65.8,60.9"/>
	<path class="st4" d="M54.7,42.6h-3.4c-0.4,0-0.8-0.4-0.8-0.8V25.7h4.9v16.1C55.5,42.2,55.1,42.6,54.7,42.6z"/>
	<path class="st5" d="M56.2,22.7c0.1,1.6-1.1,4-3.1,4c-2,0.1-3.4-2.3-3.3-3.9c0.1-0.8,0.5-1,1.4-2.7c1.3-2.4,1.4-3.9,1.9-3.9
		c0.4,0,0.5,1.1,1.5,3.2C55.6,21.6,56.1,21.7,56.2,22.7z"/>
</g>
<g>
	<circle class="st6" cx="53" cy="171.6" r="50"/>
	<circle class="st7" cx="53" cy="171.6" r="30.8"/>
	<circle class="st7" cx="53" cy="171.6" r="19.7"/>
	<circle class="st8" cx="53" cy="171.6" r="7.4"/>
	<path class="st9" d="M53.4,172.7l-1-0.8c-0.7-0.6-0.9-1.6-0.3-2.4L74.6,141l3.7,2.9l-22.5,28.6C55.2,173.2,54.2,173.3,53.4,172.7z"/>
	<polygon class="st10" points="79.5,144 72,153.5 80.9,153.9 88.2,144.6 "/>
	<polygon class="st10" points="64.2,140.7 71.7,131.2 74.2,139.7 66.9,149 "/>
</g>
<g>
	<circle class="st6" cx="179.4" cy="171.6" r="50"/>
	<circle class="st7" cx="179.4" cy="171.6" r="30.8"/>
	<circle class="st7" cx="179.4" cy="171.6" r="19.7"/>
	<circle class="st8" cx="179.4" cy="171.6" r="7.4"/>
	<path class="st9" d="M179.8,172.7l-1-0.8c-0.7-0.6-0.9-1.6-0.3-2.4L201,141l3.7,2.9l-22.5,28.6C181.6,173.2,180.5,173.3,179.8,172.7
		z"/>
	<polygon class="st10" points="205.8,144 198.4,153.5 207.2,153.9 214.5,144.6 "/>
	<polygon class="st10" points="190.6,140.7 198,131.2 200.5,139.7 193.2,149 "/>
	<polygon class="st10" points="190.7,200.9 185,206 186.2,213.6 179.3,209.8 172.2,213.1 173.7,205.6 168.1,200.1 175.9,199.3 
		179.4,192.6 182.9,199.5 "/>
</g>
<g>
	<circle class="st11" cx="179.4" cy="53" r="50"/>
	<path class="st12" d="M172.8,65.9h-30.1c-1.2,0-2.1-1.1-2.3-2.5l-1.6-18.5c-0.1-1.7,0.9-3.1,2.3-3.1h31.8c1.3,0,2.3,1.3,2.3,2.8V63
		C175,64.6,174,65.9,172.8,65.9z"/>
	<path class="st12" d="M186,65.9h30.1c1.2,0,2.1-1.1,2.3-2.5l1.6-18.5c0.1-1.7-0.9-3.1-2.3-3.1H186c-1.3,0-2.3,1.3-2.3,2.8V63
		C183.7,64.6,184.7,65.9,186,65.9z"/>
	<rect x="175.5" y="50.1" class="st13" width="7.7" height="6.2"/>
</g>
</svg>
