<svg xmlns="http://www.w3.org/2000/svg" xmlns:xlink="http://www.w3.org/1999/xlink" version="1.1" id="Layer_1" x="0px" y="0px" viewBox="0 0 110 155" style="enable-background:new 0 0 612 792;" xml:space="preserve">
<style type="text/css">
	.st0{fill:#FFFFFF;}
	.st1{fill:#F68B4E;}
	.st2{fill:#F26922;}
</style>
<path class="st0" d="M109,96.1c0,30.1-24.4,54.5-54.5,54.5S0,126.2,0,96.1S24.4,0,54.5,0S109,65.9,109,96.1z"/>
<g>
	<path class="st1" d="M22.9,37.4c-0.9,0-1.7,0.1-2.6,0.2c-5.4,10.5-9.6,22.3-12.4,33.2c3.6,4.1,9,6.7,14.9,6.7c11,0,20-8.9,20-20   C42.9,46.4,33.9,37.4,22.9,37.4z M66.7,10.1c-4.2,3.7-6.9,9.1-6.9,15.1c0,11,8.9,20,20,20c4.1,0,7.8-1.2,11-3.3   C84.4,28.2,76.1,16.1,66.7,10.1z M103,79.8c-6.5-4.7-14.5-7.4-23.2-7.4c-22.1,0-40,17.9-40,40c0,13,6.2,24.6,15.9,31.9   c27.1-0.6,48.8-22.8,48.8-50C104.5,90.1,104,85.1,103,79.8z"/>
	<path class="st1" d="M39.8,112.4c0,13,6.2,24.6,15.9,31.9c-0.4,0-0.8,0-1.2,0c-27.6,0-50-22.4-50-50c0-6.5,1.2-14.7,3.4-23.5   c3.6,4.1,9,6.7,14.9,6.7c11,0,20-8.9,20-20c0-11-9-20-20-20c-0.9,0-1.7,0.1-2.6,0.2c9-17.6,21.1-31.5,34.3-31.5   c4.2,0,8.3,1.4,12.2,3.9c-4.2,3.7-6.9,9.1-6.9,15.1c0,11,8.9,20,20,20c4.1,0,7.8-1.2,11-3.3c1.7,3.6,3.3,7.4,4.7,11.2   c0.2,0.4,0.3,0.9,0.5,1.3c3.2,8.7,5.6,17.4,7,25.3c-6.5-4.6-14.5-7.3-23.2-7.3C57.7,72.4,39.8,90.3,39.8,112.4z"/>
	<path class="st2" d="M104.5,94.3c0,27.2-21.7,49.4-48.8,50c-9.6-7.3-15.9-18.9-15.9-31.9c0-22.1,17.9-40,40-40   c8.6,0,16.6,2.7,23.2,7.4C104,85.1,104.5,90.1,104.5,94.3z"/>
	<path class="st2" d="M42.9,57.4c0,11.1-9,20-20,20c-5.9,0-11.3-2.6-14.9-6.7c2.7-10.9,7-22.7,12.3-33.1c0.9-0.1,1.7-0.2,2.6-0.2   C33.9,37.4,42.9,46.4,42.9,57.4z"/>
	<path class="st2" d="M90.8,41.9c-3.2,2.1-6.9,3.3-11,3.3c-11.1,0-20-9-20-20c0-6,2.7-11.5,6.9-15.1C76.1,16.1,84.4,28.2,90.8,41.9z   "/>
</g>
</svg>