<svg width="572" height="572" xmlns="http://www.w3.org/2000/svg" xml:space="preserve" version="1.1" style="border-radius: 50%">
 <g>
  <title>Layer 1</title>
  <ellipse fill="#f9b13b" stroke="#f49a3a" stroke-width="62" cx="286" cy="285" id="svg_2" rx="255" ry="255"/>
  <g id="svg_1" stroke="null">
   <g id="svg_3" stroke="null">
    <path id="svg_4" class="st0" d="m199.732,182.66949c-2.457,0 -4.641,0.273 -7.098,0.546c-14.742,28.665 -26.208,60.879 -33.852,90.636c9.828,11.193 24.57,18.291 40.677,18.291c30.03,0 54.6,-24.297 54.6,-54.6c0.273,-30.303 -24.297,-54.873 -54.327,-54.873zm119.57401,-74.529c-11.466,10.101 -18.837,24.843 -18.837,41.223c0,30.03 24.297,54.6 54.6,54.6c11.193,0 21.294,-3.276 30.03,-9.009c-17.472,-37.401 -40.131,-70.434 -65.793,-86.814zm99.099,190.28101c-17.745,-12.831 -39.585,-20.202 -63.336,-20.202c-60.333,0 -109.2,48.867 -109.2,109.2c0,35.49 16.926,67.158 43.407,87.087c73.983,-1.638 133.22401,-62.244 133.22401,-136.50001c0,-11.466 -1.365,-25.116 -4.095,-39.585l-0.00001,0.00001z" fill="#f49a3a" stroke="null"/>
    <path id="svg_5" class="st0" d="m245.869,387.4195c0,35.49 16.926,67.158 43.407,87.087c-1.092,0 -2.184,0 -3.276,0c-75.348,0 -136.50001,-61.152 -136.50001,-136.50001c0,-17.745 3.276,-40.131 9.282,-64.155c9.828,11.193 24.57,18.291 40.677,18.291c30.03,0 54.6,-24.297 54.6,-54.6c0,-30.03 -24.57,-54.6 -54.6,-54.6c-2.457,0 -4.641,0.273 -7.098,0.546c24.57,-48.048 57.603,-85.995 93.639,-85.995c11.466,0 22.659,3.822 33.306,10.647c-11.466,10.101 -18.837,24.843 -18.837,41.223c0,30.03 24.297,54.6 54.6,54.6c11.193,0 21.294,-3.276 30.03,-9.009c4.641,9.828 9.009,20.202 12.831,30.576c0.546,1.092 0.819,2.457 1.365,3.549c8.736,23.751 15.288,47.502 19.11,69.069c-17.745,-12.558 -39.585,-19.929 -63.336,-19.929c-60.333,0 -109.2,48.867 -109.2,109.2l0.00001,0.00001z" fill="#f49a3a" stroke="null"/>
    <path id="svg_6" class="st1" d="m422.50001,338.0065c0,74.256 -59.241,134.86201 -133.22401,136.50001c-26.208,-19.929 -43.407,-51.597 -43.407,-87.087c0,-60.333 48.867,-109.2 109.2,-109.2c23.478,0 45.318,7.371 63.336,20.202c2.73,14.469 4.095,28.119 4.095,39.585l0.00001,-0.00001z" fill="#f38a39" stroke="null"/>
    <path id="svg_7" class="st1" d="m254.332,237.26949c0,30.303 -24.57,54.6 -54.6,54.6c-16.107,0 -30.849,-7.098 -40.677,-18.291c7.371,-29.757 19.11,-61.971 33.579,-90.363c2.457,-0.273 4.641,-0.546 7.098,-0.546c30.03,0 54.6,24.57 54.6,54.6z" fill="#f38a39" stroke="null"/>
    <path id="svg_8" class="st1" d="m385.09901,194.95449c-8.736,5.733 -18.837,9.009 -30.03,9.009c-30.303,0 -54.6,-24.57 -54.6,-54.6c0,-16.38 7.371,-31.395 18.837,-41.223c25.662,16.38 48.321,49.413 65.793,86.814z" fill="#f38a39" stroke="null"/>
   </g>
  </g>
 </g>

</svg>